<?xml version="1.0" encoding="UTF-8" standalone="no"?>
<!-- Created with Inkscape (http://www.inkscape.org/) -->

<svg
   width="127.99999"
   height="127.99999"
   viewBox="0 0 33.866664 33.866664"
   version="1.1"
   id="svg1"
   xml:space="preserve"
   xmlns="http://www.w3.org/2000/svg"
   xmlns:svg="http://www.w3.org/2000/svg"><defs
     id="defs1" /><g
     id="g155"
     style="display:inline"
     transform="matrix(0.18769825,0,0,0.18769825,5.3071533,196.04193)"><path
       id="path140"
       style="display:inline;opacity:0.355;fill:none;stroke:#000000;stroke-width:6;stroke-dasharray:none"
       d="m 87.016432,-947.09666 c -3.66347,-8.53927 -0.59622,-17.50665 7.42169,-22.42956 8.017888,-4.92289 18.717908,-3.53135 24.839768,3.23046 6.12185,6.7618 5.01185,16.23373 0.0272,23.33866 -5.05817,-2.1075 -10.29343,-3.32958 -15.61541,-4.11804 -5.666398,-0.65901 -11.269708,-0.93957 -16.673248,-0.0215 z m -100.08625,45.46561 H 143.65345 l -0.0352,0.0171 m -129.200704,-45.241 c -3.663476,-8.53927 -0.59622,-17.50665 7.421679,-22.42955 8.017898,-4.9229 18.717919,-3.53135 24.839776,3.23045 6.121857,6.7618 5.011848,16.23373 0.02721,23.33866 -5.058173,-2.10751 -10.293427,-3.32959 -15.615409,-4.11805 -5.66639,-0.65899 -11.269706,-0.93956 -16.673254,-0.0215 z m -18.3688431,4.25153 c -7.6441799,-9.88241 -5.804719,-26.02341 5.471374,-36.09946 11.2760911,-10.07608 29.2460461,-10.10216 40.4243861,-0.0587 11.178335,10.04349 10.613568,28.98929 5.112416,35.81656 -7.856781,-1.95691 -10.97455,-4.0223 -25.135583,-4.59742 -11.243351,0.99348 -17.6387421,1.75041 -25.8725931,4.93899 z m 11.517166,-3.23588 c -3.783298,-13.72903 1.681597,-22.43496 8.0633731,-27.74929 10.59079,-8.8193 27.354625,-6.6201 31.495846,1.13397 6.160103,11.53421 3.990123,24.83608 -0.477403,29.57768 -5.474759,-2.03047 -9.237628,-2.91316 -19.318673,-4.30799 -8.237647,-0.55133 -13.334205,0.13183 -19.8162781,1.34924 z m -3.056244,-84.4366 102.1081751,-1.6055 c 27.99988,-0.4402 25.77739,11.1233 26.97197,23.1189 l 7.70628,77.38382 c 1.69222,16.99271 5.41193,53.2094 6.10081,53.30176 L 6.1151009,-897.02153 c -13.752069,-1.84401 -25.9106369,-3.46431 -26.0086899,-17.33912 l -0.642187,-90.86985 c -0.09806,-13.8748 11.1719619,-24.8273 25.0454009,-25.0454 z m 75.6551371,84.1949 c -3.7833,-13.72905 1.68159,-22.43497 8.06337,-27.7493 10.59079,-8.81931 27.354628,-6.62009 31.495838,1.13397 6.16011,11.53422 3.99014,24.83608 -0.4774,29.57768 -5.47476,-2.03047 -9.23761,-2.91316 -19.318668,-4.30798 -8.23765,-0.55134 -13.301172,0.0658 -19.783242,1.28315 z m -11.51716,3.23587 c -7.64418,-9.88241 -5.80472,-26.02339 5.47137,-36.09947 11.27609,-10.07608 29.246038,-10.10216 40.424378,-0.0587 11.17834,10.04347 10.61357,28.98928 5.11242,35.81656 -7.85678,-1.95692 -10.97455,-4.0223 -25.135578,-4.59742 -11.24335,0.99347 -17.440522,1.67332 -25.674362,4.86189 z" /></g></svg>
